<?xml version="1.0" encoding="iso-8859-1"?>
<!-- Generator: Adobe Illustrator 19.0.0, SVG Export Plug-In . SVG Version: 6.00 Build 0)  -->
<svg version="1.1" id="Capa_1" xmlns="http://www.w3.org/2000/svg" xmlns:xlink="http://www.w3.org/1999/xlink" x="0px" y="0px"
	 viewBox="0 0 512 512" style="enable-background:new 0 0 512 512;" xml:space="preserve">
<path style="fill:#ECF0F1;" d="M483.31,512H28.69C12.844,512,0,499.156,0,483.31V105.931h512V483.31
	C512,499.156,499.156,512,483.31,512z"/>
<path style="fill:#687492;" d="M512,105.931H0V28.69C0,12.844,12.844,0,28.69,0H483.31C499.156,0,512,12.844,512,28.69V105.931z"/>
<rect x="35.31" y="35.31" style="fill:#E64C3C;" width="35.31" height="35.31"/>
<rect x="105.931" y="35.31" style="fill:#F0C419;" width="35.31" height="35.31"/>
<rect x="176.552" y="35.31" style="fill:#24AE5F;" width="35.31" height="35.31"/>
<rect x="52.966" y="264.828" style="fill:#E57E25;" width="88.276" height="88.276"/>
<g>
	<path style="fill:#BDC3C7;" d="M414.897,300.138H185.379c-4.873,0-8.828-3.946-8.828-8.828c0-4.882,3.955-8.828,8.828-8.828
		h229.517c4.873,0,8.828,3.946,8.828,8.828C423.724,296.192,419.769,300.138,414.897,300.138z"/>
	<path style="fill:#BDC3C7;" d="M459.034,335.448H185.379c-4.873,0-8.828-3.946-8.828-8.828c0-4.882,3.955-8.828,8.828-8.828
		h273.655c4.873,0,8.828,3.946,8.828,8.828C467.862,331.502,463.907,335.448,459.034,335.448z"/>
</g>
<rect x="52.966" y="141.241" style="fill:#F29C1F;" width="88.276" height="88.276"/>
<g>
	<path style="fill:#BDC3C7;" d="M414.897,176.552H185.379c-4.873,0-8.828-3.946-8.828-8.828s3.955-8.828,8.828-8.828h229.517
		c4.873,0,8.828,3.946,8.828,8.828S419.769,176.552,414.897,176.552z"/>
	<path style="fill:#BDC3C7;" d="M459.034,211.862H185.379c-4.873,0-8.828-3.946-8.828-8.828s3.955-8.828,8.828-8.828h273.655
		c4.873,0,8.828,3.946,8.828,8.828S463.907,211.862,459.034,211.862z"/>
</g>
<rect x="52.966" y="388.414" style="fill:#D25627;" width="88.276" height="88.276"/>
<g>
	<path style="fill:#BDC3C7;" d="M414.897,423.724H185.379c-4.873,0-8.828-3.946-8.828-8.828c0-4.882,3.955-8.828,8.828-8.828
		h229.517c4.873,0,8.828,3.946,8.828,8.828C423.724,419.778,419.769,423.724,414.897,423.724z"/>
	<path style="fill:#BDC3C7;" d="M459.034,459.034H185.379c-4.873,0-8.828-3.946-8.828-8.828c0-4.882,3.955-8.828,8.828-8.828
		h273.655c4.873,0,8.828,3.946,8.828,8.828C467.862,455.089,463.907,459.034,459.034,459.034z"/>
</g>
<g>
</g>
<g>
</g>
<g>
</g>
<g>
</g>
<g>
</g>
<g>
</g>
<g>
</g>
<g>
</g>
<g>
</g>
<g>
</g>
<g>
</g>
<g>
</g>
<g>
</g>
<g>
</g>
<g>
</g>
</svg>
