<svg height="512" viewBox="0 0 64 64" width="512" xmlns="http://www.w3.org/2000/svg"><g id="Success"><path d="m51 8h10v7h-10z" fill="#ff7956"/><path d="m53 8v-3h-10v7h8 2z" fill="#ff5023"/><path d="m43 2a1 1 0 0 1 1 1v28a0 0 0 0 1 0 0h-2a0 0 0 0 1 0 0v-28a1 1 0 0 1 1-1z" fill="#d80027"/><path d="m18 47.5-3-4.5-3 4.5-6 9-3 4.5h8l8-12z" fill="#4e901e"/><path d="m30 41.497v.003-.003l-3-4.497-3 4.5-5 7.5-8 12h14l7.969-15.052z" fill="#5eac24"/><path d="m32.97 45.95-.001-.002-7.969 15.052h36l-18-34-10.031 18.948z" fill="#7ed63e"/><path d="m6 29 19.556-19.556 2.122 2.121.707-7.778-7.778.707 2.121 2.121-19.556 19.557z" fill="#d80027"/><path d="m33 18h-3v23.497l2.969 4.451.031-.059 3-5.667v-22.222z" fill="#006df0"/><path d="m21 28h-3v19.5l1 1.5 2-3 3-4.5v-13.5z" fill="#ff9811"/><path d="m9 36h-3v20.5l3-4.5 3-4.5v-11.5z" fill="#ffcd00"/><path d="m18 28v19.5l1 1.5 2-3v-18z" fill="#cc7400"/><path d="m6 36v20.5l3-4.5v-16z" fill="#cca400"/><path d="m30 18v23.497l2.969 4.451.031-.059v-27.889z" fill="#005ece"/></g></svg>